<svg width="152" height="62" viewBox="0 0 152 62" fill="none" xmlns="http://www.w3.org/2000/svg">
<g clip-path="url(#clip0_31_81)">
<path d="M61.5911 23.5192C61.3254 22.447 60.2408 21.7933 59.1687 22.059C58.0966 22.3248 57.4428 23.4093 57.7086 24.4814L61.5911 23.5192ZM28.8251 24.0003H30.8251V19.1719L27.4109 22.5861L28.8251 24.0003ZM6.7324 46.0931L5.31818 44.6788L4.20508 45.7919L5.0255 47.1354L6.7324 46.0931ZM58.5003 31.0003C58.5003 45.912 46.412 58.0003 31.5003 58.0003V62.0003C48.6211 62.0003 62.5003 48.1211 62.5003 31.0003H58.5003ZM57.7086 24.4814C58.2255 26.5671 58.5003 28.7502 58.5003 31.0003H62.5003C62.5003 28.4233 62.1854 25.9171 61.5911 23.5192L57.7086 24.4814ZM26.8251 24.0003V45.5003H30.8251V24.0003H26.8251ZM18.4893 37.1645L30.2393 25.4145L27.4109 22.5861L15.6609 34.3361L18.4893 37.1645ZM17.0751 37.7503H24.0003V33.7503H17.0751V37.7503ZM31.5003 58.0003C21.7383 58.0003 13.1843 52.8209 8.43929 45.0507L5.0255 47.1354C10.4666 56.0456 20.2872 62.0003 31.5003 62.0003V58.0003ZM15.6609 34.3361L5.31818 44.6788L8.14661 47.5073L18.4893 37.1645L15.6609 34.3361Z" fill="white"/>
<path d="M57.1727 17.5L58.587 18.9142L59.6293 17.8718L58.9421 16.5676L57.1727 17.5ZM1.40921 38.4811C1.67494 39.5533 2.75949 40.207 3.83162 39.9413C4.90375 39.6755 5.55747 38.591 5.29173 37.5189L1.40921 38.4811ZM34.1727 40.5H32.1727V45.3284L35.587 41.9142L34.1727 40.5ZM4.5 31C4.5 16.0883 16.5883 4 31.5 4V0C14.3792 0 0.5 13.8792 0.5 31H4.5ZM31.5 4C41.8707 4 50.8791 9.84632 55.4034 18.4324L58.9421 16.5676C53.7533 6.72047 43.4131 0 31.5 0V4ZM5.29173 37.5189C4.77481 35.4332 4.5 33.2501 4.5 31H0.5C0.5 33.577 0.814875 36.0832 1.40921 38.4811L5.29173 37.5189ZM55.7585 16.0858L32.7585 39.0858L35.587 41.9142L58.587 18.9142L55.7585 16.0858ZM36.1727 40.5V17.5H32.1727V40.5H36.1727Z" fill="white"/>
<path d="M28.5 18H39.5L34 12.5L28.5 18Z" fill="white"/>
<path d="M77.3973 17.6833C77.5303 17.3793 77.7393 17.2463 78.0433 17.2463C78.3473 17.2463 78.5563 17.3793 78.6703 17.6833L82.5653 28.0003H85.0543L80.7223 16.6003C80.2663 15.4033 79.3923 14.9473 78.0623 14.9473C76.7133 14.9473 75.8393 15.4033 75.3643 16.6003L70.8613 28.0003H73.3313L77.3973 17.6833ZM93.4355 15.1753C89.7115 15.1753 87.6405 17.2843 87.6405 21.5973C87.6405 25.8913 89.6925 28.0003 93.4355 28.0003H98.3945V25.7583H93.4355C90.9465 25.7583 89.8825 24.5233 89.8825 21.5973C89.8825 18.6523 90.9655 17.4173 93.4355 17.4173H98.3945V15.1753H93.4355ZM101.959 15.1753V17.4173H105.702V28.0003H107.963V17.4173H111.706V15.1753H101.959ZM115.721 15.1753V28.0003H117.963V15.1753H115.721ZM121.768 15.1753L126.062 26.5753C126.537 27.8293 127.506 28.2283 128.76 28.2283C130.09 28.2283 130.964 27.7723 131.439 26.5753L135.961 15.1753H133.472L129.387 25.4923C129.254 25.7963 129.064 25.9293 128.76 25.9293C128.456 25.9293 128.247 25.7963 128.133 25.4923L124.238 15.1753H121.768ZM143.583 15.1753C140.562 15.1753 139.289 16.6193 139.289 18.6713C139.289 20.0773 139.897 21.0653 141.094 21.5593C139.916 22.0533 139.251 23.0413 139.251 24.5043C139.251 26.4993 140.486 28.0003 143.526 28.0003H150.024V25.7583H143.526C142.215 25.7583 141.588 25.1503 141.588 24.1433C141.588 23.0983 142.253 22.5853 143.545 22.5853H149.91V20.5523H143.602C142.31 20.5523 141.645 20.0773 141.645 19.0323C141.645 18.0443 142.234 17.4173 143.583 17.4173H150.005V15.1753H143.583ZM70.8613 34.1753L75.1553 45.5753C75.6303 46.8293 76.5993 47.2283 77.8533 47.2283C79.1833 47.2283 80.0573 46.7723 80.5323 45.5753L85.0543 34.1753H82.5653L78.4803 44.4923C78.3473 44.7963 78.1573 44.9293 77.8533 44.9293C77.5493 44.9293 77.3403 44.7963 77.2263 44.4923L73.3313 34.1753H70.8613ZM90.7767 34.1753C87.7557 34.1753 86.4827 35.6193 86.4827 37.6713C86.4827 39.0773 87.0907 40.0653 88.2877 40.5593C87.1097 41.0533 86.4447 42.0413 86.4447 43.5043C86.4447 45.4993 87.6797 47.0003 90.7197 47.0003H97.2177V44.7583H90.7197C89.4087 44.7583 88.7817 44.1503 88.7817 43.1433C88.7817 42.0983 89.4467 41.5853 90.7387 41.5853H97.1037V39.5523H90.7957C89.5037 39.5523 88.8387 39.0773 88.8387 38.0323C88.8387 37.0443 89.4277 36.4173 90.7767 36.4173H97.1987V34.1753H90.7767ZM100.093 34.1753V36.4173H107.123C108.358 36.4173 108.909 37.1963 108.909 38.1083C108.909 39.0203 108.396 39.8943 107.123 39.8943H102.126C100.72 39.8943 100.112 40.4833 100.112 41.9273V47.0003H102.354V42.3643C102.354 42.1363 102.468 42.0413 102.677 42.0413H106.021L108.947 47.0003H111.436L108.453 41.8703C110.41 41.3193 111.17 39.6093 111.17 38.0133C111.17 35.9613 109.935 34.1753 107.047 34.1753H100.093ZM112.447 34.1753V36.4173H116.19V47.0003H118.451V36.4173H122.194V34.1753H112.447ZM128.127 34.1753C125.106 34.1753 123.833 35.6193 123.833 37.6713C123.833 39.0773 124.441 40.0653 125.638 40.5593C124.46 41.0533 123.795 42.0413 123.795 43.5043C123.795 45.4993 125.03 47.0003 128.07 47.0003H134.568V44.7583H128.07C126.759 44.7583 126.132 44.1503 126.132 43.1433C126.132 42.0983 126.797 41.5853 128.089 41.5853H134.454V39.5523H128.146C126.854 39.5523 126.189 39.0773 126.189 38.0323C126.189 37.0443 126.778 36.4173 128.127 36.4173H134.549V34.1753H128.127ZM136.817 34.1753L142.023 40.3123L136.285 47.0003H139.059L143.429 41.9083L147.685 47.0003H150.421L144.892 40.4833L150.383 34.1753H147.609L143.486 38.9063L139.553 34.1753H136.817Z" fill="white"/>
</g>
<defs>
<clipPath id="clip0_31_81">
<rect width="152" height="62" fill="white"/>
</clipPath>
</defs>
</svg>
