<svg width="70" height="70" viewBox="0 0 70 70" fill="none" xmlns="http://www.w3.org/2000/svg">
<g clip-path="url(#clip0_2_2)">
<mask id="mask0_2_2" style="mask-type:luminance" maskUnits="userSpaceOnUse" x="0" y="0" width="70" height="70">
<path d="M60 0H10C4.47715 0 0 4.47715 0 10V60C0 65.5229 4.47715 70 10 70H60C65.5229 70 70 65.5229 70 60V10C70 4.47715 65.5229 0 60 0Z" fill="white"/>
</mask>
<g mask="url(#mask0_2_2)">
<path d="M60 0H10C4.47715 0 0 4.47715 0 10V60C0 65.5229 4.47715 70 10 70H60C65.5229 70 70 65.5229 70 60V10C70 4.47715 65.5229 0 60 0Z" fill="#3C0082"/>
<path d="M94.8573 -15.5184C94.8573 -15.5184 68.4787 -2.95596 73.1606 28.1212C78.4135 62.967 47.9525 77.9223 27.1408 69.308C6.32914 60.6639 7.7851 28.6895 -31.7828 27.7024C-72.2071 26.7154 -80.7145 -13.5443 -80.7145 -13.5443" stroke="white" stroke-opacity="0.2" stroke-width="2" stroke-miterlimit="10"/>
<path d="M64.3677 -24.8806C64.3677 -24.8806 52.9484 1.68003 57.0308 28.0911C61.1417 54.5021 42.671 57.6128 35.3341 54.5021C20.0894 48.1013 17.1489 13.8237 -7.45967 11.6103C-25.959 9.93534 -50.8531 23.1857 -64.0424 -6.8744" stroke="white" stroke-opacity="0.2" stroke-width="2" stroke-miterlimit="10"/>
<path d="M52.0634 -13.0358C52.0634 -13.0358 56.1744 14.0931 37.9891 9.24755C17.1489 3.68419 17.4629 -9.35682 -8.91565 2.96633C-18.308 7.36319 -56.1059 8.64934 -48.4835 -15.5184" stroke="white" stroke-opacity="0.2" stroke-width="2" stroke-miterlimit="10"/>
<path d="M38.8742 45.1403C43.2416 45.1403 46.782 39.6766 46.782 32.9368C46.782 26.197 43.2416 20.7333 38.8742 20.7333C34.5068 20.7333 30.9663 26.197 30.9663 32.9368C30.9663 39.6766 34.5068 45.1403 38.8742 45.1403Z" stroke="white" stroke-opacity="0.2" stroke-width="2" stroke-miterlimit="10"/>
</g>
<g clip-path="url(#clip1_2_2)">
<path d="M16.2951 20.9661C16.2045 18.3825 18.2308 16 20.9696 16H49.0339C51.7727 16 53.7989 18.3825 53.7084 20.9661C53.6214 23.4479 53.7343 26.6628 54.5487 29.2842C55.3658 31.9136 56.7435 33.5757 59 33.7892V36.2108C56.7435 36.4243 55.3658 38.0864 54.5487 40.7158C53.7343 43.3372 53.6214 46.5521 53.7084 49.034C53.7989 51.6175 51.7727 54 49.0339 54H20.9696C18.2308 54 16.2045 51.6175 16.2952 49.034C16.3821 46.5521 16.2691 43.3372 15.4546 40.7158C14.6377 38.0864 13.2566 36.4243 11 36.2108V33.7892C13.2565 33.5757 14.6377 31.9136 15.4546 29.2842C16.2691 26.6628 16.3821 23.4479 16.2951 20.9661Z" fill="url(#paint0_linear_2_2)"/>
<g filter="url(#filter0_d_2_2)">
<path d="M36.0409 45.1014C40.475 45.1014 43.147 42.9445 43.147 39.387C43.147 36.6978 41.2405 34.751 38.4096 34.4428V34.3307C40.4894 33.9946 42.1215 32.0758 42.1215 29.9329C42.1215 26.8796 39.6951 24.8906 35.9976 24.8906H27.6782V45.1014H36.0409ZM30.9135 27.4538H35.2177C37.5575 27.4538 38.8862 28.4902 38.8862 30.367C38.8862 32.3699 37.3408 33.4904 34.5388 33.4904H30.9135V27.4538ZM30.9135 42.5384V35.8855H35.1887C38.2507 35.8855 39.8395 37.0059 39.8395 39.1909C39.8395 41.3758 38.2941 42.5384 35.3765 42.5384H30.9135Z" fill="url(#paint1_linear_2_2)"/>
<path d="M36.0409 45.1014C40.475 45.1014 43.147 42.9445 43.147 39.387C43.147 36.6978 41.2405 34.751 38.4096 34.4428V34.3307C40.4894 33.9946 42.1215 32.0758 42.1215 29.9329C42.1215 26.8796 39.6951 24.8906 35.9976 24.8906H27.6782V45.1014H36.0409ZM30.9135 27.4538H35.2177C37.5575 27.4538 38.8862 28.4902 38.8862 30.367C38.8862 32.3699 37.3408 33.4904 34.5388 33.4904H30.9135V27.4538ZM30.9135 42.5384V35.8855H35.1887C38.2507 35.8855 39.8395 37.0059 39.8395 39.1909C39.8395 41.3758 38.2941 42.5384 35.3765 42.5384H30.9135Z" stroke="white"/>
</g>
</g>
</g>
<defs>
<filter id="filter0_d_2_2" x="11.1782" y="12.3906" width="48.4688" height="53.2108" filterUnits="userSpaceOnUse" color-interpolation-filters="sRGB">
<feFlood flood-opacity="0" result="BackgroundImageFix"/>
<feColorMatrix in="SourceAlpha" type="matrix" values="0 0 0 0 0 0 0 0 0 0 0 0 0 0 0 0 0 0 127 0" result="hardAlpha"/>
<feOffset dy="4"/>
<feGaussianBlur stdDeviation="8"/>
<feColorMatrix type="matrix" values="0 0 0 0 0 0 0 0 0 0 0 0 0 0 0 0 0 0 0.15 0"/>
<feBlend mode="normal" in2="BackgroundImageFix" result="effect1_dropShadow_2_2"/>
<feBlend mode="normal" in="SourceGraphic" in2="effect1_dropShadow_2_2" result="shape"/>
</filter>
<linearGradient id="paint0_linear_2_2" x1="18.1324" y1="17.0057" x2="59.8633" y2="50.3496" gradientUnits="userSpaceOnUse">
<stop stop-color="#9013FE"/>
<stop offset="1" stop-color="#6610F2"/>
</linearGradient>
<linearGradient id="paint1_linear_2_2" x1="29.1414" y1="26.2209" x2="38.4261" y2="42.0267" gradientUnits="userSpaceOnUse">
<stop stop-color="white"/>
<stop offset="1" stop-color="#F1E5FC"/>
</linearGradient>
<clipPath id="clip0_2_2">
<rect width="70" height="70" fill="white"/>
</clipPath>
<clipPath id="clip1_2_2">
<rect width="48" height="38" fill="white" transform="translate(11 16)"/>
</clipPath>
</defs>
</svg>
