<svg width="70" height="70" viewBox="0 0 70 70" fill="none" xmlns="http://www.w3.org/2000/svg">
<g clip-path="url(#clip0_2_69)">
<mask id="mask0_2_69" style="mask-type:luminance" maskUnits="userSpaceOnUse" x="0" y="0" width="70" height="70">
<path d="M60 0H10C4.47715 0 0 4.47715 0 10V60C0 65.5229 4.47715 70 10 70H60C65.5229 70 70 65.5229 70 60V10C70 4.47715 65.5229 0 60 0Z" fill="white"/>
</mask>
<g mask="url(#mask0_2_69)">
<path d="M60 0H10C4.47715 0 0 4.47715 0 10V60C0 65.5229 4.47715 70 10 70H60C65.5229 70 70 65.5229 70 60V10C70 4.47715 65.5229 0 60 0Z" fill="#007379"/>
<path d="M94.8573 -15.5184C94.8573 -15.5184 68.4787 -2.95596 73.1606 28.1212C78.4135 62.967 47.9525 77.9223 27.1408 69.308C6.32914 60.6639 7.7851 28.6895 -31.7828 27.7024C-72.2071 26.7154 -80.7145 -13.5443 -80.7145 -13.5443" stroke="white" stroke-opacity="0.2" stroke-width="2" stroke-miterlimit="10"/>
<path d="M64.3677 -24.8806C64.3677 -24.8806 52.9484 1.68003 57.0308 28.0911C61.1417 54.5021 42.671 57.6128 35.3341 54.5021C20.0894 48.1013 17.1489 13.8237 -7.45967 11.6103C-25.959 9.93534 -50.8531 23.1857 -64.0424 -6.8744" stroke="white" stroke-opacity="0.2" stroke-width="2" stroke-miterlimit="10"/>
<path d="M52.0634 -13.0358C52.0634 -13.0358 56.1744 14.0931 37.9891 9.24755C17.1489 3.68419 17.4629 -9.35682 -8.91565 2.96633C-18.308 7.36319 -56.1059 8.64934 -48.4835 -15.5184" stroke="white" stroke-opacity="0.2" stroke-width="2" stroke-miterlimit="10"/>
<path d="M38.8742 45.1403C43.2416 45.1403 46.782 39.6766 46.782 32.9368C46.782 26.197 43.2416 20.7333 38.8742 20.7333C34.5068 20.7333 30.9663 26.197 30.9663 32.9368C30.9663 39.6766 34.5068 45.1403 38.8742 45.1403Z" stroke="white" stroke-opacity="0.2" stroke-width="2" stroke-miterlimit="10"/>
</g>
<path d="M61.6246 38.6196C61.5329 38.6196 61.4492 38.6778 61.406 38.7998C60.8525 40.3504 60.1047 41.2727 59.489 41.2727C59.1353 41.2727 58.9922 40.8858 58.9922 40.2788C58.9922 38.7602 59.9182 35.5398 60.3854 34.0715C60.4395 33.8938 60.4745 33.7349 60.4745 33.5997C60.4745 33.1729 60.2369 32.9635 59.6483 32.9635C59.0137 32.9635 58.3307 33.2073 57.6665 34.3498C57.437 33.3425 56.7431 32.9025 55.7738 32.9025C54.6532 32.9025 53.5706 33.6102 52.6796 34.758C51.7886 35.9055 50.7409 36.282 49.9526 36.0964C50.5196 34.734 50.7302 33.7162 50.7302 32.9609C50.7302 31.7761 50.1334 31.0605 49.1696 31.0605C47.7034 31.0605 46.8584 32.4334 46.8584 33.8779C46.8584 34.9938 47.374 36.1414 48.5081 36.698C47.5577 38.8078 46.1699 40.7162 45.6434 40.7162C44.9631 40.7162 44.7631 37.4482 44.8009 35.1103C44.8252 33.7691 44.9387 33.7003 44.9387 33.2949C44.9387 33.0616 44.7848 32.9025 44.1665 32.9025C42.7247 32.9025 42.2792 34.1006 42.2117 35.4762C42.1899 35.999 42.1065 36.5175 41.9633 37.0214C41.3612 39.1311 40.1191 40.732 39.3092 40.732C38.9338 40.732 38.8313 40.3635 38.8313 39.8812C38.8313 38.3626 39.6979 36.4648 39.6979 34.8453C39.6979 33.6553 39.1661 32.9027 38.1644 32.9027C36.9845 32.9027 35.424 34.2808 33.947 36.8624C34.4329 34.8852 34.6329 32.9715 33.1937 32.9715C32.8814 32.9761 32.5749 33.0543 32.2999 33.1995C32.2078 33.242 32.1307 33.3107 32.0787 33.3967C32.0267 33.4827 32.0022 33.582 32.0083 33.6818C32.1461 35.7863 30.2804 41.1773 28.5119 41.1773C28.1906 41.1773 28.034 40.8354 28.034 40.2841C28.034 38.7628 28.9573 35.5503 29.4217 34.0794C29.4811 33.8885 29.5136 33.7242 29.5136 33.5811C29.5136 33.1782 29.2597 32.9715 28.6846 32.9715C28.0529 32.9715 27.3671 33.2073 26.7057 34.3498C26.4734 33.3425 25.7795 32.9025 24.8102 32.9025C23.2199 32.9025 21.4433 34.5539 20.663 36.706C19.618 39.5791 17.5121 42.3541 14.6771 42.3541C12.104 42.3541 10.7459 40.2523 10.7459 36.9312C10.7459 32.1366 14.3315 28.2192 16.991 28.2192C18.2627 28.2192 18.8702 29.0143 18.8702 30.2336C18.8702 31.7098 18.0304 32.3963 18.0304 32.9582C18.0304 33.1305 18.1763 33.3001 18.4651 33.3001C19.6208 33.3001 20.9815 31.967 20.9815 30.1488C20.9815 28.3305 19.4777 27 16.8182 27C12.4226 27 8 31.3415 8 36.9048C8 41.3311 10.2248 44 14.0722 44C16.6966 44 18.989 41.9964 20.2255 39.6585C20.366 41.596 21.2624 42.6086 22.6286 42.6086C23.8436 42.6086 24.8263 41.8983 25.5769 40.6499C25.8659 41.9565 26.6327 42.5953 27.6291 42.5953C28.771 42.5953 29.7269 41.885 30.6367 40.5651C30.6233 41.6015 30.8636 42.5769 31.7788 42.5769C32.2108 42.5769 32.7265 42.4786 32.8184 42.1076C33.7823 38.1956 36.1637 35.0017 36.8927 35.0017C37.1087 35.0017 37.1681 35.2058 37.1681 35.447C37.1681 36.5099 36.4039 38.6885 36.4039 40.0801C36.4039 41.5828 37.0548 42.5769 38.3993 42.5769C39.8898 42.5769 41.4044 40.785 42.4141 38.1664C42.7302 40.6128 43.4133 42.5873 44.4824 42.5873C45.7946 42.5873 48.1246 39.876 49.5368 37.0054C50.0902 37.0744 50.9218 37.0558 51.721 36.5019C51.3808 37.3474 51.1812 38.2725 51.1812 39.1974C51.1812 41.8612 52.477 42.6086 53.5921 42.6086C54.8045 42.6086 55.7873 41.8983 56.5405 40.6499C56.789 41.7764 57.4235 42.5926 58.5899 42.5926C60.415 42.5926 62 40.7611 62 39.2583C62 38.8609 61.8272 38.6196 61.6246 38.6196ZM23.7411 41.1322C23.0038 41.1322 22.715 40.4033 22.715 39.3167C22.715 37.4296 24.0299 34.2781 25.4204 34.2781C26.0279 34.2781 26.2574 34.9805 26.2574 35.8393C26.2574 37.7555 25.0074 41.1322 23.7411 41.1322ZM48.9887 35.5001C48.5486 34.9858 48.3893 34.2861 48.3893 33.6632C48.3893 32.8947 48.6755 32.2452 49.0183 32.2452C49.3613 32.2452 49.4666 32.5766 49.4666 33.0377C49.4666 33.809 49.1857 34.9354 48.9887 35.5001ZM54.7045 41.1322C53.9676 41.1322 53.6786 40.2947 53.6786 39.3167C53.6786 37.4958 54.9935 34.2781 56.3948 34.2781C57.0023 34.2781 57.2183 34.9752 57.2183 35.8393C57.2183 37.7555 55.9898 41.1322 54.7045 41.1322Z" fill="white"/>
</g>
<defs>
<clipPath id="clip0_2_69">
<rect width="70" height="70" fill="white"/>
</clipPath>
</defs>
</svg>
