<svg width="70" height="70" viewBox="0 0 70 70" fill="none" xmlns="http://www.w3.org/2000/svg">
<g clip-path="url(#clip0_2_20)">
<mask id="mask0_2_20" style="mask-type:luminance" maskUnits="userSpaceOnUse" x="0" y="0" width="70" height="70">
<path d="M60 0H10C4.47715 0 0 4.47715 0 10V60C0 65.5229 4.47715 70 10 70H60C65.5229 70 70 65.5229 70 60V10C70 4.47715 65.5229 0 60 0Z" fill="white"/>
</mask>
<g mask="url(#mask0_2_20)">
<path d="M60 0H10C4.47715 0 0 4.47715 0 10V60C0 65.5229 4.47715 70 10 70H60C65.5229 70 70 65.5229 70 60V10C70 4.47715 65.5229 0 60 0Z" fill="#0868AC"/>
<path d="M94.8573 -15.5184C94.8573 -15.5184 68.4787 -2.95596 73.1606 28.1212C78.4135 62.967 47.9525 77.9223 27.1408 69.308C6.32914 60.6639 7.7851 28.6895 -31.7828 27.7024C-72.2071 26.7154 -80.7145 -13.5443 -80.7145 -13.5443" stroke="white" stroke-opacity="0.2" stroke-width="2" stroke-miterlimit="10"/>
<path d="M64.3677 -24.8806C64.3677 -24.8806 52.9484 1.68003 57.0308 28.0911C61.1417 54.5021 42.671 57.6128 35.3341 54.5021C20.0894 48.1013 17.1489 13.8237 -7.45967 11.6103C-25.959 9.93534 -50.8531 23.1857 -64.0424 -6.8744" stroke="white" stroke-opacity="0.2" stroke-width="2" stroke-miterlimit="10"/>
<path d="M52.0634 -13.0358C52.0634 -13.0358 56.1744 14.0931 37.9891 9.24755C17.1489 3.68419 17.4629 -9.35682 -8.91565 2.96633C-18.308 7.36319 -56.1059 8.64934 -48.4835 -15.5184" stroke="white" stroke-opacity="0.2" stroke-width="2" stroke-miterlimit="10"/>
<path d="M38.8742 45.1403C43.2416 45.1403 46.782 39.6766 46.782 32.9368C46.782 26.197 43.2416 20.7333 38.8742 20.7333C34.5068 20.7333 30.9663 26.197 30.9663 32.9368C30.9663 39.6766 34.5068 45.1403 38.8742 45.1403Z" stroke="white" stroke-opacity="0.2" stroke-width="2" stroke-miterlimit="10"/>
</g>
<path d="M14.6094 23.0679C10.4735 29.012 10.9884 36.7464 14.1478 43.0629C14.2228 43.2144 14.3015 43.3633 14.3791 43.5121L14.5269 43.7968L14.6191 43.9606L14.7838 44.2554C14.882 44.4283 14.9825 44.6004 15.0853 44.7725L15.2574 45.056C15.3714 45.2402 15.488 45.422 15.6073 45.6035L15.7565 45.8338C15.9211 46.0794 16.0895 46.3247 16.2635 46.5654L16.2781 46.5842L16.3636 46.6996C16.514 46.907 16.6689 47.1118 16.8256 47.3143L16.9996 47.5355C17.1395 47.7114 17.2816 47.8862 17.4264 48.0602L17.5895 48.2552C17.7841 48.4848 17.9824 48.7113 18.1843 48.9346L18.1966 48.947L18.2195 48.9725C18.4179 49.1878 18.6194 49.4002 18.824 49.6097L19.0179 49.805C19.1765 49.9648 19.3378 50.1219 19.5005 50.2783L19.6981 50.4658C19.9156 50.6709 20.1354 50.8719 20.3596 51.0684L20.3701 51.0767L20.4853 51.1749C20.6829 51.3459 20.8839 51.5158 21.0864 51.6823L21.3354 51.8807C21.5008 52.0134 21.668 52.1439 21.8364 52.2722L22.1041 52.4758C22.2901 52.6126 22.4773 52.7473 22.6663 52.8789L22.871 53.024L22.9273 53.0641C23.1065 53.1875 23.2899 53.3064 23.4733 53.4253L23.7095 53.5828C23.9908 53.7605 24.2758 53.9364 24.5641 54.1063L24.8004 54.2394C25.0123 54.3617 25.2256 54.4817 25.4416 54.599C25.5586 54.662 25.6786 54.7217 25.7964 54.782C25.949 54.8619 26.1005 54.9429 26.2558 55.0205L26.3619 55.0719L26.5498 55.1627C26.7901 55.2774 27.0324 55.3903 27.2773 55.499L27.431 55.568C27.7117 55.6908 27.9946 55.8085 28.2796 55.9209L28.4863 56.0023C28.7503 56.1039 29.018 56.2044 29.2869 56.2989L29.3874 56.3338C29.6825 56.4369 29.9803 56.5325 30.2803 56.6259L30.4959 56.6904C30.8011 56.7823 31.103 56.8921 31.4176 56.9503C51.4198 60.5979 57.23 44.9304 57.23 44.9304C52.3501 51.2878 43.6884 52.9648 35.4815 51.0977C35.1706 51.0275 34.8691 50.9304 34.5658 50.8408L34.3374 50.7714C34.0418 50.6808 33.7477 50.5852 33.4554 50.4845L33.3343 50.4407C33.0736 50.3485 32.8143 50.2524 32.5565 50.1523L32.3383 50.0664C32.0563 49.955 31.7758 49.8388 31.4986 49.7173L31.331 49.643C31.0937 49.5358 30.8575 49.4259 30.6226 49.3134L30.4179 49.2151C30.2338 49.1255 30.0515 49.0303 29.87 48.9365C29.7485 48.8724 29.6248 48.812 29.5044 48.7453C29.2834 48.6263 29.0645 48.5035 28.8478 48.377L28.6261 48.2533C28.3383 48.0834 28.0532 47.9087 27.7711 47.7294L27.5405 47.5757C27.3354 47.4441 27.1325 47.3092 26.9319 47.171L26.7361 47.0334C26.5429 46.8968 26.3512 46.7582 26.1609 46.6175L25.9063 46.4248C25.7314 46.2919 25.5584 46.1566 25.3873 46.019L25.1559 45.8334C24.9379 45.6547 24.7224 45.4731 24.5094 45.2885L24.4385 45.2289C24.209 45.0264 23.9825 44.8205 23.759 44.6113L23.5674 44.4272C23.402 44.2697 23.2393 44.111 23.0791 43.9483L22.8879 43.7574C22.6847 43.5495 22.4849 43.3382 22.2886 43.1237L22.259 43.0922C22.0522 42.8654 21.8495 42.6348 21.6511 42.4007L21.4921 42.2117C21.3439 42.0333 21.198 41.8531 21.0545 41.6709L20.8944 41.4714C20.7228 41.2496 20.5544 41.0253 20.3893 40.7986C15.833 34.5834 14.1958 26.0117 17.8374 18.9722M27.4483 18.0594C24.4569 22.3637 24.6196 28.1259 26.9529 32.678C27.3434 33.4433 27.7854 34.1811 28.2759 34.8864C28.724 35.5288 29.2209 36.293 29.8156 36.809C30.0331 37.0472 30.257 37.2796 30.4869 37.5058L30.6639 37.6802C30.8872 37.8979 31.1158 38.1102 31.3494 38.3169L31.3771 38.3409L31.3839 38.3477C31.6452 38.5752 31.9121 38.7961 32.1845 39.0103L32.3664 39.152C32.6403 39.363 32.9195 39.5669 33.2038 39.7637L33.2281 39.782C33.3541 39.869 33.4824 39.95 33.6103 40.034L33.7914 40.1536C33.9954 40.2845 34.202 40.412 34.412 40.5343L34.5001 40.5853C34.6813 40.6895 34.8646 40.7923 35.0488 40.892L35.2441 40.9937C35.3713 41.06 35.4984 41.1279 35.6278 41.1924L35.6859 41.2187C35.9495 41.3484 36.2154 41.4737 36.4869 41.5918L36.6639 41.6645C36.881 41.7568 37.1004 41.8468 37.3201 41.9308L37.6014 42.0339C37.8013 42.1082 38.0019 42.1757 38.204 42.2435L38.4766 42.3309C38.7643 42.4202 39.0485 42.533 39.3481 42.5829C54.7918 45.1415 58.3573 33.2507 58.3573 33.2507C55.1435 37.8793 48.9193 40.088 42.2776 38.3638C41.984 38.2866 41.6923 38.2023 41.4028 38.111L41.1399 38.0259C40.9347 37.9595 40.7308 37.8893 40.5283 37.8152L40.2523 37.7124C40.0313 37.6276 39.8118 37.5391 39.5938 37.4469L39.4164 37.3719C39.1448 37.2537 38.8763 37.1288 38.6109 36.9973C38.4748 36.9309 38.3409 36.8608 38.2066 36.7918L37.9734 36.6718C37.8013 36.5785 37.6309 36.4823 37.4623 36.383L37.34 36.3137C37.1311 36.1918 36.9247 36.0658 36.7209 35.9357L36.5341 35.8112C36.3996 35.7242 36.266 35.6358 36.1333 35.546C35.8502 35.3492 35.5718 35.1457 35.2985 34.9355L35.1106 34.7874C32.2036 32.4924 29.8989 29.3552 28.8035 25.7983C27.6553 22.1098 27.9028 17.969 29.8921 14.6083M38.2464 14.3177C36.4831 16.9127 36.3099 20.1354 37.5335 23.0012C38.8239 26.0435 41.4676 28.4297 44.5535 29.5618C44.6806 29.6087 44.8081 29.6507 44.9368 29.6945L45.1059 29.7482C45.2878 29.8052 45.4681 29.8715 45.656 29.9072C54.1835 31.5549 56.4965 25.5313 57.1119 24.6444C55.0861 27.5615 51.6811 28.2617 47.5033 27.2477C47.1733 27.1678 46.8106 27.0485 46.4926 26.9357C46.0841 26.7905 45.6835 26.6242 45.2923 26.4373C44.55 26.0799 43.8451 25.6498 43.1878 25.1533C39.4494 22.3164 37.127 16.9055 39.5664 12.4989" fill="white"/>
</g>
<defs>
<clipPath id="clip0_2_20">
<rect width="70" height="70" fill="white"/>
</clipPath>
</defs>
</svg>
